<svg width="25" height="17" viewBox="0 0 25 17" fill="none" xmlns="http://www.w3.org/2000/svg">
<rect width="25" height="17" fill="white"/>
<path d="M2.48968 -0.226667C2.36436 -1.60168 1.1481 -2.61476 -0.226913 -2.48943C-1.60193 -2.36411 -2.615 -1.14785 -2.48968 0.227159L2.48968 -0.226667ZM22.0246 0.188569C22.1288 -1.18821 21.0971 -2.38873 19.7203 -2.49288C18.3435 -2.59702 17.143 -1.56535 17.0389 -0.188569L22.0246 0.188569ZM0 0.000245929C-2.48968 0.227159 -2.48958 0.228216 -2.48948 0.22931C-2.48945 0.229726 -2.48934 0.230862 -2.48926 0.231694C-2.48911 0.23336 -2.48894 0.23518 -2.48875 0.237153C-2.48838 0.241098 -2.48794 0.245656 -2.48744 0.250815C-2.48643 0.261134 -2.48515 0.273866 -2.48357 0.288933C-2.48041 0.319061 -2.47606 0.358567 -2.47031 0.406831C-2.4588 0.5033 -2.44163 0.635125 -2.41707 0.797308C-2.36805 1.121 -2.28901 1.56953 -2.16555 2.10209C-1.92111 3.15654 -1.49009 4.59501 -0.737822 6.06092C0.787129 9.03251 3.79734 12.3388 9.2011 12.3388V7.33876C6.30046 7.33876 4.71012 5.72575 3.71062 3.77808C3.20067 2.78436 2.88848 1.76321 2.70528 0.972936C2.61492 0.58314 2.55903 0.263038 2.52657 0.0486815C2.51039 -0.0581575 2.50019 -0.137707 2.4945 -0.185357C2.49166 -0.209152 2.48996 -0.224892 2.48922 -0.231994C2.48885 -0.235542 2.48872 -0.236923 2.4888 -0.236062C2.48884 -0.235631 2.48894 -0.234639 2.48909 -0.233077C2.48916 -0.232295 2.48925 -0.231371 2.48935 -0.230304C2.4894 -0.22977 2.48948 -0.228859 2.4895 -0.228594C2.48959 -0.227649 2.48968 -0.226667 0 0.000245929ZM9.2011 12.3388C15.0738 12.3388 18.4067 9.22524 20.14 6.14556C20.9778 4.65686 21.4415 3.19276 21.6977 2.11622C21.827 1.5729 21.9068 1.11444 21.9551 0.782088C21.9793 0.615541 21.9957 0.479578 22.0066 0.379231C22.012 0.329025 22.016 0.28763 22.0189 0.255673C22.0204 0.23969 22.0216 0.226057 22.0225 0.21485C22.023 0.209247 22.0234 0.204248 22.0237 0.199865C22.0239 0.197674 22.0241 0.195636 22.0242 0.193753C22.0243 0.192812 22.0244 0.191514 22.0244 0.191044C22.0245 0.189788 22.0246 0.188569 19.5317 0C17.0389 -0.188569 17.0389 -0.189713 17.039 -0.190819C17.0391 -0.191139 17.0391 -0.192213 17.0392 -0.192854C17.0393 -0.194139 17.0394 -0.195281 17.0395 -0.196281C17.0396 -0.198281 17.0397 -0.199714 17.0398 -0.200588C17.04 -0.202337 17.0399 -0.201858 17.0397 -0.199225C17.0392 -0.193951 17.0379 -0.180098 17.0355 -0.158243C17.0308 -0.114467 17.0219 -0.0390514 17.007 0.0634305C16.9771 0.269131 16.9238 0.579332 16.8336 0.958394C16.6507 1.72662 16.3292 2.72221 15.7827 3.6932C14.7473 5.5329 12.9148 7.33876 9.2011 7.33876V12.3388Z" transform="translate(2.73413 3.37894)" fill="black"/>
</svg>
